Coordinates
version=1
nRows=19
nColumns=63
inDegrees=yes

Units are S.I. units (second, meters, Newtons, ...)
If the header above contains a line with 'inDegrees', this indicates whether rotational values are in degrees (yes) or radians (no).

endheader
time	pelvis_tilt	pelvis_list	pelvis_rotation	pelvis_tx	pelvis_ty	pelvis_tz	hip_flexion_r	hip_adduction_r	hip_rotation_r	knee_angle_r	knee_angle_r_beta	ankle_angle_r	subtalar_angle_r	mtp_angle_r	hip_flexion_l	hip_adduction_l	hip_rotation_l	knee_angle_l	knee_angle_l_beta	ankle_angle_l	subtalar_angle_l	mtp_angle_l	L5_S1_Flex_Ext	L5_S1_Lat_Bending	L5_S1_axial_rotation	L4_L5_Flex_Ext	L4_L5_Lat_Bending	L4_L5_axial_rotation	L3_L4_Flex_Ext	L3_L4_Lat_Bending	L3_L4_axial_rotation	L2_L3_Flex_Ext	L2_L3_Lat_Bending	L2_L3_axial_rotation	L1_L2_Flex_Ext	L1_L2_Lat_Bending	L1_L2_axial_rotation	L1_T12_Flex_Ext	L1_T12_Lat_Bending	L1_T12_axial_rotation	Abs_r3	Abs_r2	Abs_r1	Abs_t1	Abs_t2	neck_flexion	neck_bending	neck_rotation	arm_flex_r	arm_add_r	arm_rot_r	elbow_flex_r	pro_sup_r	wrist_flex_r	wrist_dev_r	arm_flex_l	arm_add_l	arm_rot_l	elbow_flex_l	pro_sup_l	wrist_flex_l	wrist_dev_l
1.745763	-5.177457	-2.863809	88.273362	0.258163	0.834710	0.718167	2.921892	-1.941186	2.474007	5.006122	0.087373	21.810963	-1.198692	0.000000	4.881748	1.772068	-8.205483	7.382482	0.128849	23.856952	10.086624	0.000000	0.182138	-0.292036	2.115588	0.338249	-0.388408	2.247812	0.299235	-0.710057	2.247812	0.208166	-0.710057	1.851139	0.169133	-0.595520	1.718915	0.104074	-0.452364	1.586691	1.300994	-3.303573	11.766264	0.000000	0.000000	27.703468	-0.930884	-13.518599	12.756720	-19.898026	6.125525	140.339643	87.751938	-19.755560	2.696221	24.487156	-16.495860	23.509136	133.553888	70.573253	-9.277287	-5.385936
1.762712	-5.062247	-2.821460	88.358949	0.257871	0.834984	0.717913	2.913688	-1.857966	2.048425	5.092066	0.088873	21.953112	-0.669136	0.000000	4.802963	1.677246	-8.094286	7.341431	0.128132	23.845885	10.061953	0.000000	0.173544	-0.279006	2.129037	0.322289	-0.371078	2.262101	0.285116	-0.678375	2.262101	0.198344	-0.678375	1.862907	0.161153	-0.568949	1.729842	0.099163	-0.432180	1.596778	1.239610	-3.156170	11.841063	0.000000	0.000000	27.625541	-0.639528	-13.500302	13.899122	-20.347360	6.475227	142.989766	88.035616	-20.994543	1.949884	26.026433	-16.278000	24.197663	134.813291	73.618107	-12.459405	-6.573951
1.779661	-4.946989	-2.765887	88.453644	0.257530	0.835244	0.717699	2.888755	-1.776073	1.622699	5.175512	0.090330	22.084734	-0.148609	0.000000	4.716827	1.583698	-8.039943	7.301352	0.127433	23.873878	10.094912	0.000000	0.161884	-0.265031	2.111298	0.300634	-0.352491	2.243254	0.265959	-0.644396	2.243254	0.185017	-0.644396	1.847385	0.150325	-0.540450	1.715429	0.092500	-0.410532	1.583473	1.156320	-2.998080	11.742404	0.000000	0.000000	27.555821	-0.210616	-13.226940	15.325588	-20.560555	7.014003	145.202919	88.389839	-21.872551	1.428419	27.484924	-15.998140	24.859904	135.983233	77.048000	-15.872762	-7.661240
1.796610	-4.845849	-2.727166	88.556723	0.257210	0.835461	0.717539	2.884964	-1.705829	1.211088	5.263956	0.091873	22.207231	0.336008	0.000000	4.662360	1.501923	-8.037002	7.271763	0.126916	23.931565	10.164439	0.000000	0.153022	-0.252853	2.066256	0.284177	-0.336295	2.195397	0.251400	-0.614787	2.195397	0.174889	-0.614787	1.807974	0.142096	-0.515618	1.678833	0.087437	-0.391670	1.549692	1.093020	-2.860325	11.491895	0.000000	0.000000	27.489004	0.333546	-12.739098	16.906481	-20.547317	7.690606	146.921920	88.774437	-22.246285	0.906684	28.924598	-15.732193	25.660459	136.937902	80.564096	-19.900794	-9.020019
1.813559	-4.760450	-2.685561	88.685553	0.256885	0.835665	0.717420	2.876208	-1.650434	0.816664	5.354269	0.093450	22.312712	0.756955	0.000000	4.620424	1.432008	-8.077175	7.257425	0.126666	24.015937	10.310292	0.000000	0.144009	-0.242693	2.001431	0.267439	-0.322781	2.126520	0.236593	-0.590083	2.126520	0.164588	-0.590083	1.751252	0.133727	-0.494899	1.626162	0.082287	-0.375931	1.501073	1.028643	-2.745386	11.131357	0.000000	0.000000	27.433702	0.933943	-12.103193	18.502571	-20.371186	8.400698	148.197309	89.130843	-22.126063	0.654394	30.265077	-15.443615	26.366877	137.676460	83.955228	-23.674730	-9.999437
1.830508	-4.687154	-2.631295	88.817649	0.256580	0.835868	0.717335	2.848187	-1.602944	0.487287	5.433419	0.094831	22.391720	1.064567	0.000000	4.571524	1.371229	-8.194405	7.244605	0.126442	24.127075	10.535985	0.000000	0.134006	-0.233753	1.930032	0.248862	-0.310892	2.050659	0.220158	-0.568348	2.050659	0.153155	-0.568348	1.688778	0.124438	-0.476670	1.568151	0.076571	-0.362084	1.447524	0.957191	-2.644265	10.734259	0.000000	0.000000	27.390338	1.503732	-11.407850	19.995922	-20.094629	9.061603	149.017785	89.390189	-21.531385	0.768903	31.479448	-15.113902	27.011241	138.085077	86.612962	-26.934045	-10.726777
1.847458	-4.631423	-2.569008	88.958800	0.256288	0.836074	0.717277	2.808427	-1.571353	0.201485	5.509572	0.096160	22.451589	1.287766	0.000000	4.526629	1.324365	-8.356209	7.247525	0.126493	24.253373	10.822476	0.000000	0.123729	-0.226938	1.861777	0.229777	-0.301827	1.978138	0.203274	-0.551776	1.978138	0.141410	-0.551776	1.629054	0.114895	-0.462771	1.512693	0.070699	-0.351526	1.396332	0.883784	-2.567163	10.354643	0.000000	0.000000	27.349766	2.008328	-10.746979	21.271252	-19.761610	9.595667	149.420612	89.487683	-20.616684	1.442429	32.568236	-14.717860	27.576381	138.106815	88.487663	-29.530222	-11.053695
1.864407	-4.581718	-2.505256	89.109110	0.256007	0.836287	0.717226	2.757331	-1.540713	-0.028122	5.573704	0.097279	22.471711	1.392329	0.000000	4.482973	1.279677	-8.556665	7.252876	0.126587	24.380068	11.173755	0.000000	0.114578	-0.220371	1.800736	0.212783	-0.293094	1.913282	0.188240	-0.535811	1.913282	0.130951	-0.535811	1.575644	0.106397	-0.449381	1.463098	0.065470	-0.341355	1.350552	0.818420	-2.492885	10.015154	0.000000	0.000000	27.298367	2.427598	-10.122598	22.284370	-19.399765	9.963973	149.412650	89.428380	-19.458064	2.678355	33.494276	-14.223356	28.000797	137.720526	89.531025	-31.333288	-10.919075
1.881356	-4.552284	-2.434932	89.258655	0.255754	0.836521	0.717183	2.691143	-1.530350	-0.238473	5.630244	0.098266	22.474349	1.465829	0.000000	4.434780	1.254039	-8.754493	7.264068	0.126782	24.490796	11.529226	0.000000	0.104978	-0.215670	1.755279	0.194954	-0.286841	1.864984	0.172468	-0.524380	1.864984	0.119979	-0.524380	1.535869	0.097482	-0.439794	1.426164	0.059984	-0.334073	1.316459	0.749845	-2.439700	9.762335	0.000000	0.000000	27.229728	2.699013	-9.657451	23.038241	-19.020489	10.157929	149.024204	89.297809	-18.260148	4.395216	34.260707	-13.636230	28.287476	136.884567	89.659596	-32.218321	-10.643572
1.898305	-4.533929	-2.365357	89.417782	0.255485	0.836776	0.717173	2.622292	-1.532268	-0.441848	5.689357	0.099298	22.450214	1.493680	0.000000	4.386812	1.242681	-8.898216	7.271876	0.126918	24.559383	11.840967	0.000000	0.095701	-0.211341	1.728840	0.177726	-0.281083	1.836892	0.157227	-0.513854	1.836892	0.109376	-0.513854	1.512735	0.088868	-0.430966	1.404682	0.054683	-0.327367	1.296630	0.683581	-2.390730	9.615289	0.000000	0.000000	27.134212	2.839729	-9.342021	23.583034	-18.688827	10.206794	148.295622	89.170149	-17.159233	6.340660	34.858991	-12.948049	28.387195	135.649918	89.188711	-32.212428	-10.240344
1.915254	-4.528794	-2.297644	89.563611	0.255264	0.837035	0.717147	2.545692	-1.545541	-0.617218	5.740157	0.100185	22.403707	1.492105	0.000000	4.334189	1.246367	-8.966690	7.278145	0.127028	24.590142	12.055171	0.000000	0.087255	-0.208883	1.730566	0.162042	-0.277814	1.838726	0.143352	-0.507878	1.838726	0.099724	-0.507878	1.514245	0.081025	-0.425954	1.406085	0.049858	-0.323560	1.297924	0.623257	-2.362927	9.624887	0.000000	0.000000	27.011138	2.836553	-9.291559	23.931352	-18.382767	10.083618	147.314154	89.042813	-16.245327	8.310679	35.308532	-12.167196	28.292475	134.160369	88.227174	-31.513053	-9.499673
1.932203	-4.530315	-2.228482	89.697727	0.255072	0.837290	0.717119	2.454958	-1.563569	-0.754529	5.774601	0.100786	22.330474	1.444572	0.000000	4.272339	1.258874	-8.967440	7.280436	0.127068	24.584956	12.185976	0.000000	0.079362	-0.206118	1.748922	0.147383	-0.274137	1.858230	0.130384	-0.501155	1.858230	0.090703	-0.501155	1.530307	0.073696	-0.420316	1.420999	0.045347	-0.319277	1.311692	0.566875	-2.331649	9.726981	0.000000	0.000000	26.855350	2.736597	-9.341462	24.214364	-18.113744	9.964318	146.121665	88.916746	-15.799759	10.123405	35.610441	-11.346425	27.963987	132.539155	87.108882	-30.327293	-8.464285
1.949153	-4.540854	-2.158233	89.819213	0.254906	0.837526	0.717112	2.354665	-1.587940	-0.843930	5.796062	0.101160	22.240343	1.341992	0.000000	4.205145	1.283970	-8.881678	7.281510	0.127086	24.545778	12.205793	0.000000	0.071567	-0.203432	1.783303	0.132907	-0.270564	1.894760	0.117578	-0.494624	1.894760	0.081794	-0.494624	1.560390	0.066457	-0.414838	1.448934	0.040893	-0.315116	1.337477	0.511196	-2.301259	9.918198	0.000000	0.000000	26.676206	2.535641	-9.502471	24.456024	-17.862248	9.783378	144.828321	88.797475	-15.655853	11.838180	35.837995	-10.495587	27.433010	130.772290	85.425503	-28.334213	-7.417014
1.966102	-4.564359	-2.093804	89.894164	0.254821	0.837708	0.717103	2.253680	-1.622634	-0.895213	5.796392	0.101166	22.162516	1.264563	0.000000	4.134215	1.319884	-8.793178	7.275450	0.126981	24.497268	12.177558	0.000000	0.065289	-0.201803	1.828459	0.121248	-0.268397	1.942738	0.107263	-0.490663	1.942738	0.074619	-0.490663	1.599902	0.060627	-0.411516	1.485623	0.037306	-0.312592	1.371344	0.466354	-2.282831	10.169340	0.000000	0.000000	26.487684	2.303082	-9.702331	24.723245	-17.615251	9.721888	143.484850	88.675629	-16.197082	13.343023	35.994787	-9.650112	26.738459	129.146995	83.994901	-26.535891	-5.614244
1.983051	-4.594004	-2.037980	89.929394	0.254791	0.837814	0.717122	2.155654	-1.658397	-0.865126	5.770524	0.100715	22.090239	1.143762	0.000000	4.069526	1.358461	-8.725613	7.267910	0.126849	24.455921	12.140729	0.000000	0.060407	-0.200273	1.878466	0.112181	-0.266364	1.995870	0.099242	-0.486945	1.995870	0.069039	-0.486945	1.643658	0.056094	-0.408398	1.526254	0.034516	-0.310224	1.408850	0.431479	-2.265534	10.447466	0.000000	0.000000	26.307444	2.058976	-9.892257	25.014430	-17.355379	9.673070	142.183046	88.553310	-17.047043	14.900967	36.097338	-8.814084	25.835267	127.659496	82.655343	-24.514492	-3.262823
2.000000	-4.633296	-1.990959	89.919299	0.254824	0.837837	0.717189	2.066012	-1.704142	-0.852024	5.720258	0.099837	22.059384	1.140962	0.000000	4.015797	1.399799	-8.727743	7.262970	0.126763	24.435050	12.147010	0.000000	0.056236	-0.199826	1.933998	0.104436	-0.265769	2.054873	0.092390	-0.485857	2.054873	0.064272	-0.485857	1.692248	0.052221	-0.407485	1.571373	0.032133	-0.309530	1.450498	0.401688	-2.260471	10.756316	0.000000	0.000000	26.145903	1.795901	-10.087962	25.293969	-17.055726	9.486509	141.010483	88.430199	-17.788521	16.695976	36.193140	-8.029292	24.867232	126.322435	81.502049	-22.587377	-0.702678
2.016949	-4.686495	-1.961600	89.858464	0.254967	0.837755	0.717302	1.999196	-1.759090	-0.825988	5.650902	0.098627	22.073494	1.218416	0.000000	3.978454	1.454489	-8.674690	7.247294	0.126489	24.417863	12.018598	0.000000	0.053975	-0.202920	1.992971	0.100237	-0.269884	2.117532	0.088675	-0.493380	2.117532	0.061688	-0.493380	1.743850	0.050121	-0.413794	1.619289	0.030841	-0.314323	1.494728	0.385538	-2.295471	11.084308	0.000000	0.000000	26.011842	1.552509	-10.351618	25.556054	-16.742317	9.311876	139.999757	88.320861	-18.746006	18.423033	36.279463	-7.329045	23.814663	125.220459	80.334230	-20.507677	2.108952
2.033898	-4.751917	-1.939122	89.766149	0.255166	0.837616	0.717497	1.947629	-1.828190	-0.884261	5.570068	0.097216	22.138892	1.476068	0.000000	3.957734	1.514490	-8.708197	7.235965	0.126291	24.420378	11.957047	0.000000	0.051635	-0.207728	2.042439	0.095891	-0.276278	2.170091	0.084831	-0.505070	2.170091	0.059013	-0.505070	1.787134	0.047948	-0.423599	1.659481	0.029504	-0.321771	1.531829	0.368822	-2.349861	11.359430	0.000000	0.000000	25.906023	1.391011	-10.496296	25.810274	-16.365675	9.073979	139.163799	88.218112	-19.423695	20.075592	36.417825	-6.778650	22.960823	124.319936	79.396017	-19.200721	4.343580
2.050847	-4.836950	-1.923125	89.629568	0.255479	0.837413	0.717749	1.909131	-1.910238	-0.901292	5.476290	0.095579	22.228408	1.751455	0.000000	3.946896	1.586766	-8.813179	7.220503	0.126022	24.442903	11.929634	0.000000	0.048977	-0.216120	2.080205	0.090956	-0.287439	2.210217	0.080465	-0.525473	2.210217	0.055976	-0.525473	1.820179	0.045480	-0.440711	1.690166	0.027986	-0.334769	1.560153	0.349839	-2.444789	11.569473	0.000000	0.000000	25.834438	1.305651	-10.547225	26.067155	-15.930761	8.885690	138.519490	88.128061	-19.929959	21.388159	36.558946	-6.403884	22.185550	123.760838	78.724838	-18.168763	6.359434
